<?xml version="1.0" encoding="utf-8"?>
<!-- Generator: Adobe Illustrator 22.0.1, SVG Export Plug-In . SVG Version: 6.00 Build 0)  -->
<svg version="1.1" id="Calque_1" xmlns="http://www.w3.org/2000/svg" xmlns:xlink="http://www.w3.org/1999/xlink" x="0px" y="0px"
	 viewBox="0 0 500 500" style="enable-background:new 0 0 500 500;" xml:space="preserve">
<style type="text/css">
	.st0{fill:#A499D1;}
	.st1{fill:#FFFFFF;}
</style>
<g id="Background">
</g>
<g id="Objects">
	<g>
		<g>
			<path class="st0" d="M341.2,80.4h4.8V43h3.8V31.5h4.8V24h5v-7.5h5.4v-4.3h4.3v-31.9c0-3.2,2.5-6.1,5.4-6.8v-24.2
				c0-0.9,0.5-1.4,1.4-1.4l0,0c0.5,0,1.1,0.5,1.1,1.4v24.2c3.2,0.5,5.7,3.4,5.7,6.8v31.9h4.3v4.3h5V24h5v7.5h4.8V43h3.8v37.3h5
				v204.5h4.1v-27.1h0.9v-66.3h24.2v-16.5h26.7v33.9h20.1v39.6h12.9v-28.1h3.4V207h31.9v13.3v29.2v7.9v36h5v-25.6H552v25.6v6.8h5.7
				v-20.4h7.5v-19.5h10.2v-31.9h12.2v4.8h5.7v-7.5h17.2v7.5h23.3v-10.6h4.3v10.6V260h21.3v-38.5h4.5v-20.1h46.8v96.2h50v-34.4h12.9
				v-46.8h37.8v4.8h5.4v22.4h5.4v-6.1h26.7v-24.9h2.9v-27.8h12.9v27.8h12.2v96.2h6.1v-18.1h5.4v-46.2h4.3v-11.8H912V-39.1h44.6
				v271.7h41.2v153.8h-32.6v-34.4h-38.7v16.5h-43.2v-5h-52.9v-54.8h18.8v-19.2h-26.7v-5.4h-5.9v14.5v59.5h-55.9V355h-56.1v-18.8
				h-40.7v-24.7h-31.4v-17.2h-10v10.4H603v10.4h-19.5v11.5h-33.7v-6.8h-14.9v18.8H414.9v-3.2h-10.9V331h-62.4V80.4H341.2z
				 M1091.6,214.3h26v60.9h10v26.2v25.1v31h-56.1v-5H1041V69.7h35.3v231.7h7.9v-26.2h7.5V214.3z"/>
		</g>
		<path class="st1" d="M152.5,440.3H1200v-82.6h-4.8v-7.5v-4.1h-3.4v4.1h-4.1v-6.1h-4.1v-4.3h-11.8v-26h-4.5v-7.7h-3.4v-2.9h-16.3
			v2.9H1136v-27.6v-8.6h-3.4v-3.4h-24.9v3.4h-3.4v8.6h-10.2v27.6v7.7V341h-4.3v-22.4h-5.4v-22.4h-13.8v-35.5h-7v-6.1h-4.8v-26h-4.1
			v-14.5h-2.9v-2.9h-1.8v-7.9h-2.7v-16.5h-2v16.5h-2.7v7.9h-4.8v2.9h-3.8l-16.3,11.3v3.2h-2v26v6.1v34.4v1.1h-3.8v22.2h-2.7v-24.9
			h-24.9v16.3h-12.9v44.3h-2.7V350h-1.8v-93.7h-20.6v-25.1h-1.8v-7.5h-2.5V217l-5.9-10.4v-6.1h-1.4v-21h-1.8v21h-1.4v6.1l-1.8,3.4
			v-10.9h-3.8v-2.9H924v2.9h-4.8v-2.9h-1.8v2.9h-4.8v-2.9h-1.8v2.9h-4.8v-2.9h-2v2.9h-4.8v-2.9h-1.8v2.9h-4.8v-2.9H891v2.9h-4.8
			v-2.9h-1.8v2.9h-3.8v57.2v38.7h-27.8v32.4h-6.1v-40v-9h-4.3v-17.9h-4.5v-50h-10.2v-13.3H819v-4.3h-5v4.3h-2.9v-2.5h-12.7v2.5h-2.3
			v-2.5h-5.9v2.5h-25.1v13.3v50v17.9v9h-5.9V355h-6.3v-3.6l-4.8-2.9v-59.3h4.5v-10.4h-18.1v-11.5h-2.7c-1.1-2.9-2.5-7.5-2.9-12.9
			c-0.9-7.9,0-7.7,1.8-10c1.6-2-1.6-14.7,0.5-16.3c2.5-1.4-0.5-7.5,1.4-8.6c2-1.4,1.1-20.1-1.1-24c-2-4.1-4.1-5,0-5.9
			c4.3-0.9,7.5-1.8,7.7-7.2c0.2-5-1.1-9.7,2.9-10.2c4.3-0.9,7.9-7.7,7-10.4c-1.4-2.7-1.8-3.2-1.4-4.3c0.2-0.2,0-0.2-0.2-0.5l2.9-5
			l-10.6-6.3l-4.5,7.5c-2.7,0-7.7-0.2-8.4-5.7c-1.1-6.8-0.9-11.5-5.9-14.5c-3.8-2.5-6.1-3.2-7-5c0.2-1.1,0.2-1.8,0.2-2.9v-16.1l0,0
			h0.2l10-1.4l-10-0.5h-0.2c-0.2-0.2-0.2-0.5-0.2-0.5l1.1-0.9l11.3-9l-12.2,7.5l-0.5,0.5c-0.9-1.4-1.6-2.5-2.7-3.2l8.4-11.8
			l-10,10.6l0,0c-1.1-0.9-2.5-1.1-4.1-1.4l-0.9-13.8l-0.9,13.8c-1.4,0.2-2.7,0.5-4.1,1.4l0,0l-10-10.6l8.6,11.8
			c-1.4,0.9-2,1.8-2.7,3.2l-0.9-0.5l-8.8-5.4c-0.9-2.9-1.6-5.9-2.7-7.2c-2.9-4.8-2.9-9-2.5-13.1c0.2-4.1-2.7-11.8-2.7-15.6
			c0-0.9,0-1.4,0-1.8h4.8v-3.8h-1.8v-1.6h2c-0.9-1.4-3.4-2-6.8-2.5v-0.5c1.1-0.5,2.5-1.6,2.9-3.2c1.4-3.2,0-7.5-1.1-8.8
			c-1.4-1.6-2-2.9-2-2.9s-4.5,4.1-1.6,9c0,0-1.4-0.2-1.8-1.4c-0.9-1.1-1.6-1.8-1.6-1.8s-1.6,2.5-1.6,4.8c0,1.6,1.8,2.9,2.9,4.1v1.1
			c-3.2,0.2-5.9,1.1-6.8,2.5h2v1.6h-1.8v3.8h4.8c0,2.7-0.2,10.6,1.6,16.5c2.7,7.2-1.4,18.1,1.8,24.9c1.4,2.7,2,5.4,3.2,7.5
			c-3.4,3.2-8.4,8.8-6.3,13.3c2.9,6.1,4.8,5.9,4.3,9.7c-0.2,3.4,2.7,2,3.2,6.3c0.9,4.3-1.8,7.9,0.5,13.1c2.5,5,4.5,6.1,2,11.8
			c-2.5,5.4-5,7.9-2,14.3c2.9,5.9-3.2,11.3,0.9,22.6c4.1,11.5,0.2,25.6,1.6,36.7c1.6,10.9,1.8,21.3,0.2,24.7
			c-1.4,2.9-5.7,1.8-6.3,4.8h-4.8v11.5H652v10.4h4.5v59.3l-4.8,2.9v3.4h-6.3v-84.6l0,0V255v-13.3h-17.6v-4.3h-7.2v-33h-1.8v-6.8
			h-1.4v6.8h-5v-10h-2v-1.8h-1.4v-10.9h-1.8v-9h-1.1v-5h-1.8v5h-1.1v8.8h-1.8v10.9h-1.1v1.8h-2v10h-5v-6.8h-1.8v6.8h-1.8v32.8h-7.2
			v17.6h-11.3V253v-1.6h-3.4v-1.6h-5.9v1.6h-13.3v1.6h-18.6v1.8H524v15.2h-0.9v44.1h-7.2V353h-1.1v-13.8h-1.8v-80.5h-17.6v25.6h-6.1
			v-9.7H474v-44.1h-25.6v83.7h-3.2v-4.3h-4.5v-37.1h-13.3v-23.8h-31.2v55.7h-1.8v-4.8h-1.8v-41.2v-40.7h-31.2v41.2H345v58.4h-2.5
			V312h-5.7v-19.5h-11.8v-20.1h-16.5v-1.8h-2.9v-5.2h-8.8v-3.8h-2v-1.8h2c-1.4-4.3-7-7.5-13.3-7.5c-0.5,0-1.1,0-1.6,0.2v-16.1h-4.3
			v-9.3h-7.5v-2.9h3.8v-1.4h-3.8v-1.8l-14.7-11.5l-14.9,11.5v1.8h-3.4v1.4h3.4v2.9h-7.2v9.3h-4.5v69.7h-7v-14.5v-57.9h-37.1v57.9
			h-12v2.7h-2v2.5h-2.5v6.1h-2.7v54.8h-12.9V440.3z M688.9,108.2l5.7,0.9l0,0l0,0v7.9c-0.2,0.2-0.5,0.5-0.9,0.9
			c-2,1.4-2.9,0.2-2.7-2.7C691.4,112.9,691.6,110.7,688.9,108.2L688.9,108.2z M694.8,107.3h-0.2l-6.8,0.2c-0.2,0-0.5-0.2-0.9-0.2
			c-0.2-2-0.5-4.8-1.1-7.5l7.7,6.1l1.1,0.9C694.8,106.6,694.8,107,694.8,107.3L694.8,107.3z"/>
	</g>
</g>
<g id="Designed_by_Freepik">
</g>
</svg>
